<?xml version="1.0" encoding="UTF-8"?>
<svg width="16px" height="16px" viewBox="0 0 16 16" version="1.1" xmlns="http://www.w3.org/2000/svg" xmlns:xlink="http://www.w3.org/1999/xlink">
    <title>绑定微信</title>
    <g id="20220402确定版本" stroke="none" stroke-width="1" fill="none" fill-rule="evenodd">
        <g id="0图标补充" transform="translate(-132.000000, -476.000000)" fill-rule="nonzero">
            <g id="绑定微信" transform="translate(132.000000, 476.000000)">
                <rect id="矩形" fill="#000000" opacity="0" x="0" y="0" width="15.9979065" height="15.9979065"></rect>
                <path d="M9.05923639,7.9978909 C8.8769165,7.9978909 8.69453411,8.16719687 8.69453411,8.37562272 C8.69453411,8.54495994 8.87682276,8.71429715 9.05923639,8.71429715 C9.33285683,8.71429715 9.52823752,8.54495994 9.52823752,8.37562272 C9.52823752,8.16721249 9.33287246,7.9978909 9.05923639,7.9978909 L9.05923639,7.9978909 Z M7.8607526,6.23918354 C8.14735572,6.23918354 8.32975372,6.05686365 8.32975372,5.78322759 C8.32975372,5.49662447 8.14735572,5.32730287 7.8607526,5.32730287 C7.58719464,5.32730287 7.32663499,5.49664009 7.32663499,5.78322759 C7.32661937,6.0568949 7.58719464,6.23918354 7.8607526,6.23918354 L7.8607526,6.23918354 Z M8.00404635,0.00874885513 C3.58813983,0.00874885513 0.00840515011,3.58848354 0.00840515011,8.00439005 C0.00840515011,12.4202653 3.58813983,16 8.00404635,16 C12.4199216,16 15.9996563,12.4202653 15.9996563,8.00439005 C15.9996563,3.58848354 12.4199372,0.00874885513 8.00404635,0.00874885513 L8.00404635,0.00874885513 Z M6.49293159,10.0300781 C6.01088529,10.0300781 5.65915007,9.95197894 5.20320974,9.82165224 L3.88747566,10.4860965 L4.26533247,9.36569629 C3.340391,8.71439089 2.79321261,7.89368579 2.79321261,6.89058268 C2.79321261,5.11889264 4.46069753,3.76406994 6.49294721,3.76406994 C8.29066509,3.76406994 9.89301791,4.83232077 10.2056489,6.34351364 C10.0753847,6.31740768 9.95811876,6.30442501 9.85391365,6.30442501 C8.08222362,6.30442501 6.71441823,7.63314176 6.71441823,9.23549457 C6.71441823,9.50902128 6.75350687,9.75653577 6.81863897,10.017111 C6.71441823,10.0300625 6.5971367,10.0300625 6.49291597,10.0300625 L6.49291597,10.0300625 L6.49293159,10.0300781 Z M11.9252207,11.3067079 L12.1857179,12.2447258 L11.1956756,11.6845803 C10.8179125,11.7626795 10.4531321,11.8799454 10.075369,11.8799454 C8.32970685,11.8799454 6.9488563,10.6814929 6.9488563,9.19640594 C6.9488563,7.71131903 8.3297381,6.51283523 10.075369,6.51283523 C11.7297619,6.51283523 13.2148645,7.71131903 13.2148645,9.19640594 C13.2148645,10.0300781 12.654719,10.7726216 11.9252207,11.3067235 L11.9252207,11.3067235 L11.9252207,11.3067079 Z M5.28138701,5.32730287 C5.00782905,5.32730287 4.72124156,5.49664009 4.72124156,5.78322759 C4.72124156,6.05687928 5.00781343,6.23926166 5.28138701,6.23926166 C5.54196228,6.23926166 5.75038813,6.05686365 5.75038813,5.78322759 C5.75038813,5.49665571 5.54196228,5.32730287 5.28138701,5.32730287 L5.28138701,5.32730287 Z M11.1045312,7.9978909 C10.9090881,7.9978909 10.7397509,8.16719687 10.7397509,8.37562272 C10.7397509,8.54495994 10.9090881,8.71429715 11.1045312,8.71429715 C11.3650284,8.71429715 11.560456,8.54495994 11.560456,8.37562272 C11.560456,8.16721249 11.3650284,7.9978909 11.1045312,7.9978909 L11.1045312,7.9978909 Z" id="形状" fill="#50B674"></path>
            </g>
        </g>
    </g>
</svg>